<svg preserveAspectRatio="none" width="100%" height="100%" overflow="visible" style="display: block;" viewBox="0 0 30.0498 29.9999" fill="none" xmlns="http://www.w3.org/2000/svg">
<path id="Vector" d="M28.867 28.2009C28.6971 28.4115 28.4023 28.7118 28.1903 28.8775C23.4401 32.6032 18.4019 25.6518 13.2549 27.1764C9.55231 28.2729 5.09016 32.1372 1.49898 28.421C-2.09221 24.7048 1.75442 20.4261 2.86181 16.786C4.42301 11.6594 -2.95637 6.04367 1.50577 1.51631C5.03174 -2.06129 9.50067 1.66849 13.1285 2.77451C18.2918 4.35067 23.5502 -2.69311 28.1292 1.22553C33.2354 5.59528 26.3818 11.0303 27.0449 15.8348C27.5993 19.8568 32.1579 24.1409 28.8656 28.2022L28.867 28.2009ZM22.4523 6.16868C20.2593 4.61426 17.9739 6.08715 15.6939 6.24748C12.0429 6.50429 9.37839 3.66857 6.36603 7.46085C4.4828 9.83323 6.3701 12.4869 6.3769 15.0291C6.38505 17.9151 4.17979 20.6177 6.90274 23.2455C9.62568 25.8733 12.1625 23.6518 15.0118 23.6667C18.4304 23.683 20.9074 26.1736 23.8043 22.4588C25.4905 20.2943 23.932 17.8417 23.792 15.5658C23.5746 12.0439 26.3642 8.94461 22.4509 6.17004L22.4523 6.16868Z" fill="#ff0700"/>
</svg>
